#!OML:ASF H:\IndianDance\Patient Classification 1\Patient 1\Session 1\dancer.ASF
:FULLY-SPECIFIED
:DEGREES
1808
root 18.7282 12.7587 8.87571 -167.978 6.05649 -186.324
lowerback 14.3545 -6.61333 -17.5577
upperback -5.26683 -11.9151 -7.83037
thorax -12.2572 -3.91998 3.35959
lowerneck -10.8267 -6.70416 -5.47899
upperneck 12.6889 -9.88279 13.0799
head 6.59485 -3.91497 4.17937
rclavicle -5.80451e-014 -6.67916e-014
rhumerus 10.8451 58.7578 -32.295
rradius 72.5866
rwrist 1.80544
rhand -49.4996 58.6872
rfingers 7.12502
rthumb -22.1088 389.931
lclavicle -5.80451e-014 -6.67916e-014
lhumerus 42.8131 -67.4204 64.9358
lradius 69.4204
lwrist 68.6924
lhand -11.2185 26.5675
lfingers 7.12502
lthumb 14.81 -303.982
rfemur -426.042 -21.8138 379.856
rtibia 89.8457
rfoot -25.548 0.168221
rtoes -7.43125
lfemur -192.365 161.22 -167.802
ltibia 34.247
lfoot -1.82012 5.78368
ltoes -1.99635
1809
root 18.7118 12.7759 8.84097 -167.89 6.78296 -186.135
lowerback 13.8495 -6.89339 -17.44
upperback -5.48221 -12.187 -7.66377
thorax -12.1461 -4.06689 3.47294
lowerneck -11.0507 -6.42554 -5.64273
upperneck 12.9833 -9.48464 12.9433
head 6.6875 -3.72881 4.20125
rclavicle -2.89232e-014 -4.45278e-014
rhumerus 11.9323 59.0601 -31.9883
rradius 72.0575
rwrist 1.03922
rhand -49.3169 58.0364
rfingers 7.12502
rthumb -21.9333 389.26
lclavicle -2.89232e-014 -4.45278e-014
lhumerus 41.0675 -66.403 67.8463
lradius 66.9393
lwrist 70.8716
lhand -8.93917 27.2763
lfingers 7.12502
lthumb 17.005 -303.448
rfemur -425.684 -21.6266 380.231
rtibia 89.0947
rfoot -26.2287 -0.0575475
rtoes -6.23784
lfemur -188.084 165.959 -167.386
ltibia 27.0642
lfoot -0.286049 7.65579
ltoes 1.84054
1810
root 18.6898 12.785 8.80818 -167.824 7.57715 -185.942
lowerback 13.3383 -7.12182 -17.1928
upperback -5.69286 -12.3705 -7.51828
thorax -12.0689 -4.18314 3.48156
lowerneck -11.2108 -6.17325 -5.80486
upperneck 13.2008 -9.1108 12.7733
head 6.74508 -3.56414 4.21076
rclavicle -2.31584e-014 9.85972e-014
rhumerus 12.88 59.3392 -31.7183
rradius 71.6247
rwrist 0.37076
rhand -49.2883 57.0552
rfingers 7.12502
rthumb -21.9059 388.275
lclavicle -2.31584e-014 9.85972e-014
lhumerus 39.9112 -65.482 70.0071
lradius 64.6057
lwrist 72.3636
lhand -7.09259 27.7962
lfingers 7.12502
lthumb 18.7818 -303.091
rfemur -425.423 -21.4132 380.57
rtibia 88.489
rfoot -26.8447 -0.221796
rtoes -5.03614
lfemur -183.633 170.655 -167.277
ltibia 19.8412
lfoot 0.379184 10.6845
ltoes 11.6042
1811
root 18.6648 12.7918 8.77709 -167.779 8.46507 -185.754
lowerback 12.8173 -7.28191 -16.8443
upperback -5.8996 -12.4479 -7.40001
thorax -12.0242 -4.25738 3.39143
lowerneck -11.2963 -5.95306 -5.93852
upperneck 13.3298 -8.77221 12.5618
head 6.76165 -3.42551 4.1991
rclavicle 4.52235e-015 -7.31528e-014
rhumerus 13.6519 59.6152 -31.5049
rradius 71.308
rwrist -0.172043
rhand -49.5544 55.549
rfingers 7.12502
rthumb -22.1614 386.799
lclavicle 4.52235e-015 -7.31528e-014
lhumerus 39.2389 -64.7103 71.5131
lradius 62.5108
lwrist 73.2437
lhand -5.65215 28.2262
lfingers 7.12502
lthumb 20.1667 -302.801
rfemur -425.197 -21.1135 380.842
rtibia 87.9587
rfoot -27.4101 -0.25957
rtoes -3.6978
lfemur -178.722 174.949 -167.499
ltibia 12.0683
lfoot -0.240318 14.8757
ltoes 24.6678
1812
root 18.6392 12.7999 8.74766 -167.754 9.45941 -185.568
lowerback 12.3009 -7.33344 -16.4373
upperback -6.09736 -12.3752 -7.31249
thorax -12.0138 -4.26497 3.21644
lowerneck -11.2896 -5.79169 -5.98435
upperneck 13.3528 -8.51105 12.2784
head 6.72921 -3.33269 4.14169
rclavicle -7.54636e-014 -5.725e-014
rhumerus 13.9321 59.3521 -31.7572
rradius 70.9728
rwrist -1.7428
rhand -47.4107 54.9184
rfingers 7.12502
rthumb -20.1021 385.938
lclavicle -7.54636e-014 -5.725e-014
lhumerus 38.9946 -64.165 72.4619
lradius 60.7323
lwrist 73.6664
lhand -4.52605 28.7233
lfingers 7.12502
lthumb 21.2487 -302.421
rfemur -424.958 -20.6885 381.052
rtibia 87.4449
rfoot -27.934 -0.226283
rtoes -2.40874
lfemur -171.369 174.186 -167.361
ltibia -2.06736e-014
lfoot 2.20637 18.1495
ltoes 36.4636
1813
root 18.6145 12.8106 8.72005 -167.755 10.5604 -185.395
lowerback 11.8076 -7.27271 -16.023
upperback -6.28442 -12.1592 -7.25231
thorax -12.033 -4.20418 2.98971
lowerneck -11.1947 -5.68873 -5.93893
upperneck 13.2753 -8.32952 11.9287
head 6.65102 -3.28491 4.03962
rclavicle 5.27276e-014 -1.27222e-014
rhumerus 13.7542 58.7815 -32.3764
rradius 70.6688
rwrist -3.73619
rhand -44.2394 54.4694
rfingers 7.12502
rthumb -17.0516 385.198
lclavicle 5.27276e-014 -1.27222e-014
lhumerus 39.0662 -63.8495 72.9472
lradius 59.3512
lwrist 73.8507
lhand -3.77455 29.2966
lfingers 7.12502
lthumb 21.9704 -301.931
rfemur -424.68 -20.1307 381.195
rtibia 86.9225
rfoot -28.4096 -0.191317
rtoes -1.38705
lfemur -170.209 173.336 -167.434
ltibia 4.77083e-015
lfoot -0.609551 18.1265
ltoes 45.2758
1814
root 18.5916 12.8243 8.6946 -167.799 11.7581 -185.267
lowerback 11.3752 -7.11353 -15.6864
upperback -6.46357 -11.8384 -7.19931
thorax -12.0799 -4.08459 2.78602
lowerneck -11.044 -5.62931 -5.8329
upperneck 13.126 -8.20617 11.5233
head 6.54182 -3.2702 3.90402
rclavicle -6.55555e-014 -7.31528e-014
rhumerus 13.2381 57.906 -33.2616
rradius 70.3874
rwrist -6.14796
rhand -39.9903 54.1236
rfingers 7.12502
rthumb -12.9584 384.546
lclavicle -6.55555e-014 -7.31528e-014
lhumerus 39.312 -63.6856 73.1008
lradius 58.3891
lwrist 73.9426
lhand -3.29599 29.9368
lfingers 7.12502
lthumb 22.4299 -301.346
rfemur -424.357 -19.4523 381.238
rtibia 86.3973
rfoot -28.8287 -0.107792
rtoes -0.396855
lfemur -168.991 172.413 -167.706
ltibia 1.27222e-014
lfoot -4.11906 17.9714
ltoes 51.4955
1815
root 18.5705 12.8397 8.67184 -167.893 13.0185 -185.207
lowerback 11.0196 -6.87716 -15.4703
upperback -6.62791 -11.448 -7.14533
thorax -12.1418 -3.91964 2.64233
lowerneck -10.879 -5.60937 -5.70638
upperneck 12.9333 -8.13511 11.0937
head 6.42028 -3.2826 3.75253
rclavicle -7.95884e-014 -4.45278e-014
rhumerus 12.4875 56.8073 -34.2903
rradius 70.138
rwrist -8.70611
rhand -35.1651 53.6402
rfingers 7.12502
rthumb -8.30412 383.823
lclavicle -7.95884e-014 -4.45278e-014
lhumerus 39.6588 -63.6083 72.995
lradius 57.8455
lwrist 74.0647
lhand -2.96335 30.5653
lfingers 7.12502
lthumb 22.7491 -300.756
rfemur -424.009 -18.6928 381.171
rtibia 85.8923
rfoot -29.1812 -0.0249184
rtoes 0.387293
lfemur -167.775 171.447 -168.136
ltibia -3.18055e-015
lfoot -7.96633 17.2974
ltoes 55.5191
1816
root 18.5506 12.8561 8.65238 -168.042 14.2942 -185.238
lowerback 10.7512 -6.58809 -15.4035
upperback -6.77217 -11.0238 -7.09396
thorax -12.2117 -3.72352 2.57533
lowerneck -10.7064 -5.62374 -5.57765
upperneck 12.7033 -8.11055 10.6695
head 6.29073 -3.31713 3.59874
rclavicle -4.10242e-014 -9.54166e-015
rhumerus 11.5779 55.6677 -35.3385
rradius 69.9126
rwrist -10.7746
rhand -31.0511 52.6758
rfingers 7.12502
rthumb -4.33251 382.74
lclavicle -4.10242e-014 -9.54166e-015
lhumerus 40.0607 -63.5877 72.6528
lradius 57.7225
lwrist 74.3008
lhand -2.85032 31.1047
lfingers 7.12502
lthumb 22.8576 -300.23
rfemur -423.66 -17.901 380.981
rtibia 85.4292
rfoot -29.4562 0.0513394
rtoes 0.935139
lfemur -166.617 170.483 -168.681
ltibia 1.27222e-014
lfoot -11.7808 15.9677
ltoes 58.1572
1817
root 18.532 12.8725 8.63657 -168.24 15.5327 -185.384
lowerback 10.5529 -6.27794 -15.489
upperback -6.88764 -10.6014 -7.05344
thorax -12.2683 -3.5143 2.58043
lowerneck -10.5454 -5.67356 -5.48264
upperneck 12.446 -8.13478 10.2954
head 6.16291 -3.37209 3.46269
rclavicle 3.2228e-014 1.17681e-013
rhumerus 10.5591 54.5935 -36.3352
rradius 69.6928
rwrist -11.936
rhand -28.4586 51.3167
rfingers 7.12502
rthumb -1.82887 381.345
lclavicle 3.2228e-014 1.17681e-013
lhumerus 40.5354 -63.5948 72.0347
lradius 57.9971
lwrist 74.6268
lhand -2.97679 31.4971
lfingers 7.12502
lthumb 22.7362 -299.823
rfemur -423.342 -17.1261 380.658
rtibia 85.0206
rfoot -29.6439 0.134366
rtoes 1.29746
lfemur -165.556 169.565 -169.316
ltibia -2.54444e-014
lfoot -15.1435 14.2919
ltoes 59.7754
1818
root 18.5151 12.8898 8.62436 -168.469 16.6723 -185.64
lowerback 10.4037 -5.98101 -15.7081
upperback -6.97358 -10.2181 -7.02417
thorax -12.2986 -3.31216 2.65113
lowerneck -10.3909 -5.75207 -5.42597
upperneck 12.1629 -8.20047 9.99264
head 6.03658 -3.44255 3.35271
rclavicle -6.00827e-014 1.90833e-014
rhumerus 9.46026 53.6881 -37.2443
rradius 69.4465
rwrist -11.8926
rhand -28.0793 49.6717
rfingers 7.12502
rthumb -1.46249 379.697
lclavicle -6.00827e-014 1.90833e-014
lhumerus 41.0763 -63.6022 71.1313
lradius 58.6323
lwrist 74.8967
lhand -3.30842 31.7741
lfingers 7.12502
lthumb 22.4179 -299.507
rfemur -423.069 -16.4126 380.223
rtibia 84.6581
rfoot -29.7437 0.210524
rtoes 1.45269
lfemur -164.634 168.737 -170
ltibia -1.90833e-014
lfoot -17.8822 12.5793
ltoes 60.732
1819
root 18.5006 12.9105 8.61503 -168.693 17.651 -185.97
lowerback 10.2736 -5.72793 -16.003
upperback -7.03186 -9.9009 -6.99428
thorax -12.2897 -3.13664 2.77257
lowerneck -10.238 -5.85449 -5.42564
upperneck 11.8549 -8.30066 9.77901
head 5.91201 -3.52493 3.27807
rclavicle -1.13928e-013 -5.08889e-014
rhumerus 8.30631 52.9258 -38.0586
rradius 69.1759
rwrist -10.8623
rhand -29.6146 47.6808
rfingers 7.12502
rthumb -2.94531 377.721
lclavicle -1.13928e-013 -5.08889e-014
lhumerus 41.6681 -63.5828 69.9511
lradius 59.5987
lwrist 74.9546
lhand -3.80189 32.0018
lfingers 7.12502
lthumb 21.9442 -299.223
rfemur -422.844 -15.7973 379.726
rtibia 84.313
rfoot -29.7611 0.303341
rtoes 1.53858
lfemur -163.9 168.039 -170.677
ltibia -3.65764e-014
lfoot -19.8683 11.1452
ltoes 61.1845
1820
root 18.489 12.9358 8.60746 -168.872 18.4276 -186.325
lowerback 10.1241 -5.53437 -16.2965
upperback -7.06282 -9.65165 -6.96637
thorax -12.2291 -2.9976 2.89965
lowerneck -10.0686 -5.98523 -5.46899
upperneck 11.519 -8.44335 9.65695
head 5.78543 -3.62296 3.23695
rclavicle -4.99446e-014 5.08889e-014
rhumerus 7.06962 52.1833 -38.841
rradius 68.8871
rwrist -9.3209
rhand -32.2424 45.4183
rfingers 7.12502
rthumb -5.48275 375.509
lclavicle -4.99446e-014 5.08889e-014
lhumerus 42.3259 -63.538 68.4841
lradius 60.8445
lwrist 74.6271
lhand -4.29086 32.3065
lfingers 7.12502
lthumb 21.4746 -298.864
rfemur -422.66 -15.3027 379.23
rtibia 83.953
rfoot -29.7098 0.363907
rtoes 1.46834
lfemur -163.39 167.493 -171.305
ltibia 1.11319e-014
lfoot -21.1833 10.123
ltoes 61.3571
1821
root 18.4803 12.9671 8.60052 -168.981 18.9739 -186.672
lowerback 9.93656 -5.43065 -16.5221
upperback -7.07479 -9.4992 -6.93379
thorax -12.1167 -2.91498 3.00857
lowerneck -9.88828 -6.1253 -5.56062
upperneck 11.1754 -8.60228 9.62221
head 5.66232 -3.72403 3.23088
rclavicle 3.47873e-015 -1.27222e-014
rhumerus 5.81326 51.6565 -39.5299
rradius 68.5714
rwrist -6.9278
rhand -36.6963 42.2785
rfingers 7.12502
rthumb -9.78163 372.526
lclavicle 3.47873e-015 -1.27222e-014
lhumerus 42.9649 -63.428 66.7867
lradius 62.3508
lwrist 73.9059
lhand -4.7957 32.5909
lfingers 7.12502
lthumb 20.9897 -298.525
rfemur -422.5 -14.951 378.771
rtibia 83.5474
rfoot -29.6053 0.401565
rtoes 1.35007
lfemur -163.131 167.113 -171.875
ltibia 1.59028e-015
lfoot -21.9838 9.57192
ltoes 61.3741
1822
root 18.4744 13.0048 8.59361 -169.009 19.2738 -186.968
lowerback 9.71584 -5.3726 -16.6725
upperback -7.06572 -9.38564 -6.88813
thorax -11.9602 -2.86237 3.09691
lowerneck -9.64936 -6.30866 -5.64621
upperneck 10.8024 -8.82456 9.62091
head 5.52692 -3.85474 3.23089
rclavicle 2.30839e-014 2.22639e-014
rhumerus 4.42972 50.6793 -40.2864
rradius 68.2412
rwrist -5.53891
rhand -39.4796 39.7685
rfingers 7.12502
rthumb -12.466 370.16
lclavicle 2.30839e-014 2.22639e-014
lhumerus 43.656 -63.3407 64.8869
lradius 64.0727
lwrist 72.7496
lhand -5.19928 32.8919
lfingers 7.12502
lthumb 20.6019 -298.181
rfemur -422.337 -14.757 378.391
rtibia 83.0735
rfoot -29.4654 0.418501
rtoes 1.26462
lfemur -163.131 166.909 -172.376
ltibia 7.31528e-014
lfoot -22.3548 9.48408
ltoes 61.2788
